<?xml version="1.0" encoding="UTF-8"?><svg xmlns="http://www.w3.org/2000/svg" xmlns:xlink="http://www.w3.org/1999/xlink" height="500.0" preserveAspectRatio="xMidYMid meet" version="1.0" viewBox="0.0 0.0 337.2 500.0" width="337.2" zoomAndPan="magnify"><g id="change1_1"><path d="M43.1 313.4H314.40000000000003V500H43.1z" fill="#8a2f2d"/></g><g id="change1_2"><path d="M167.3,142.7L167.3,142.7c-53.7,0-97.2,43.5-97.2,97.2v126.3h194.5V239.9C264.5,186.2,221,142.7,167.3,142.7z" fill="#8a2f2d"/></g><g id="change2_1"><path d="M120.5,0h96.1v126.5c-15.1-5.3-31.2-8.1-48-8.1c-16.8,0-33,2.9-48,8.1V21.8L120.5,0z" fill="#ec1c24"/></g><g id="change3_1"><path d="M36.4,242.8c0-72.9,59.3-132.2,132.2-132.2s132.2,59.3,132.2,132.2V273h-48.1v-35.1c0-43.7-35.5-79.2-79.2-79.2 h-9.9c-43.7,0-79.2,35.5-79.2,79.2V273H36.4L36.4,242.8L36.4,242.8z" fill="#ef5423"/></g><g id="change4_1"><path d="M234.6,273H105.8c6.1-8.7,13.5-17.1,21.2-25.7c13-14.5,26.2-29.4,33.5-47.2c6.8,15.5,14.4,36.2,16,54.7 c0.3,2.9,1.8,5.4,4.2,7c2.4,1.5,5.4,1.9,8.1,0.9c11.3-4.1,20.1-14.6,25.9-31.3c0.1-0.4,0.3-0.8,0.4-1.3 C221.6,240.1,229.2,254.7,234.6,273z" fill="#fcb415"/></g><g id="change2_2"><path d="M337.2,500h-58.8V348c0-3.9-3.1-7-7-7H65.8c-3.9,0-7,3.1-7,7v152H0V269.8h337.2V500z" fill="#ec1c24"/></g></svg>